<svg xmlns="http://www.w3.org/2000/svg" version="1.1" xmlns:xlink="http://www.w3.org/1999/xlink" xmlns:svgjs="http://svgjs.dev/svgjs" width="1500" height="1500" viewBox="0 0 1500 1500"><rect width="1500" height="1500" fill="#ede1d1"></rect><g transform="matrix(0.6666666666666666,0,0,0.6666666666666666,248.99196703140967,408.5688172043012)"><svg viewBox="0 0 364 248" data-background-color="#ede1d1" preserveAspectRatio="xMidYMid meet" height="1021" width="1500" xmlns="http://www.w3.org/2000/svg" xmlns:xlink="http://www.w3.org/1999/xlink"><g id="tight-bounds" transform="matrix(1,0,0,1,0.36692400056688257,0.4000000000000057)"><svg viewBox="0 0 363.26615199886623 247.2" height="247.2" width="363.26615199886623"><g><svg viewBox="0 0 395.52 269.1485112554751" height="247.2" width="363.26615199886623"><g transform="matrix(1,0,0,1,0,166.34457765863715)"><svg viewBox="0 0 395.52 102.80393359683794" height="102.80393359683794" width="395.52"><g id="textblocktransform"><svg viewBox="0 0 395.52 102.80393359683794" height="102.80393359683794" width="395.52" id="textblock"><g><svg viewBox="0 0 395.52 102.80393359683794" height="102.80393359683794" width="395.52"><g transform="matrix(1,0,0,1,0,0)"><svg width="395.52" viewBox="1.63 -32.5 158.11 41.1" height="102.80393359683794" data-palette-color="#6a704c"><path d="M15.35 0L11.2 0 11.2-31.28 15.35-31.28 15.35 0ZM24.93-28.48L1.63-28.48 1.63-31.95 24.93-31.95 24.93-28.48ZM48.35 0L44.32 0 44.5-5.93 44.35-6.55 44.35-14.33 44.37-15.75Q44.37-18.73 42.86-20.15 41.35-21.58 38.07-21.58L38.07-21.58Q35.45-21.58 33.26-20.83 31.07-20.08 29.37-19.07L29.37-19.07 29.75-22.53Q30.7-23.1 32.01-23.66 33.32-24.23 35.01-24.6 36.7-24.98 38.72-24.98L38.72-24.98Q41.35-24.98 43.19-24.34 45.02-23.7 46.16-22.5 47.3-21.3 47.82-19.6 48.35-17.9 48.35-15.8L48.35-15.8 48.35 0ZM35.92 0.53L35.92 0.53Q32.3 0.53 30.36-1.24 28.42-3 28.42-6.28L28.42-6.28 28.42-7Q28.42-10.38 30.51-12.04 32.6-13.7 37.15-14.35L37.15-14.35 44.87-15.45 45.1-12.5 37.65-11.43Q34.85-11.03 33.65-10.06 32.45-9.1 32.45-7.23L32.45-7.23 32.45-6.83Q32.45-4.9 33.63-3.88 34.82-2.85 37.2-2.85L37.2-2.85Q39.3-2.85 40.8-3.58 42.3-4.3 43.22-5.53 44.15-6.75 44.47-8.25L44.47-8.25 45.1-5.5 44.32-5.5Q43.97-3.9 43.01-2.53 42.05-1.15 40.32-0.31 38.6 0.53 35.92 0.53ZM64.87 0L58.65 0 52.65-24.4 56.82-24.4 61.62-2.95 62.1-2.95 67.09-23.75 72.82-23.75 77.82-2.95 78.27-2.95 83.12-24.4 87.27-24.4 81.27 0 75.07 0 70.95-17.35 70.15-20.83 69.77-20.83 69-17.35 64.87 0ZM99.84 0.55L99.84 0.55Q97.82 0.55 96.11 0.24 94.39-0.08 93.09-0.54 91.79-1 90.94-1.43L90.94-1.43 90.54-5.48Q92.22-4.53 94.52-3.81 96.82-3.1 99.52-3.1L99.52-3.1Q102.12-3.1 103.71-3.78 105.29-4.45 106.02-5.7 106.74-6.95 106.74-8.72L106.74-8.72 106.74-9.33Q106.74-11.13 106.08-12.3 105.42-13.48 103.92-14.06 102.42-14.65 99.89-14.68L99.89-14.68 94.62-14.78 94.62-18.05 99.97-18.15Q102.39-18.2 103.84-18.82 105.29-19.45 105.92-20.59 106.54-21.73 106.54-23.3L106.54-23.3 106.54-23.73Q106.54-26.3 105.01-27.64 103.47-28.98 99.82-28.98L99.82-28.98Q97.09-28.98 94.77-28.24 92.44-27.5 90.72-26.55L90.72-26.55 91.09-30.18Q92.57-31.08 94.93-31.79 97.29-32.5 100.49-32.5L100.49-32.5Q105.77-32.5 108.26-30.35 110.74-28.2 110.74-24.35L110.74-24.35 110.74-23.8Q110.74-21.88 110.11-20.4 109.47-18.93 108.12-18.01 106.77-17.1 104.59-16.8L104.59-16.8 104.57-16.23 104.47-16.68Q107.94-16.18 109.48-14.39 111.02-12.6 111.02-9.38L111.02-9.38 111.02-8.47Q111.02-4.25 108.31-1.85 105.59 0.55 99.84 0.55ZM125.19-3.78L127.52-3.78 125.39-2.85 132.69-24.4 136.87-24.4 125.39 8.6 121.29 8.6 125.14-2.55 126.92-1 122.32-1 114.34-24.4 118.54-24.4 125.19-3.78ZM159.74 0L155.71 0 155.89-5.93 155.74-6.55 155.74-14.33 155.76-15.75Q155.76-18.73 154.25-20.15 152.74-21.58 149.46-21.58L149.46-21.58Q146.84-21.58 144.65-20.83 142.46-20.08 140.76-19.07L140.76-19.07 141.14-22.53Q142.09-23.1 143.4-23.66 144.71-24.23 146.4-24.6 148.09-24.98 150.11-24.98L150.11-24.98Q152.74-24.98 154.58-24.34 156.41-23.7 157.55-22.5 158.69-21.3 159.21-19.6 159.74-17.9 159.74-15.8L159.74-15.8 159.74 0ZM147.31 0.53L147.31 0.53Q143.69 0.53 141.75-1.24 139.81-3 139.81-6.28L139.81-6.28 139.81-7Q139.81-10.38 141.9-12.04 143.99-13.7 148.54-14.35L148.54-14.35 156.26-15.45 156.49-12.5 149.04-11.43Q146.24-11.03 145.04-10.06 143.84-9.1 143.84-7.23L143.84-7.23 143.84-6.83Q143.84-4.9 145.03-3.88 146.21-2.85 148.59-2.85L148.59-2.85Q150.69-2.85 152.19-3.58 153.69-4.3 154.61-5.53 155.54-6.75 155.86-8.25L155.86-8.25 156.49-5.5 155.71-5.5Q155.36-3.9 154.4-2.53 153.44-1.15 151.71-0.31 149.99 0.53 147.31 0.53Z" opacity="1" transform="matrix(1,0,0,1,0,0)" fill="#6a704c" class="wordmark-text-0" data-fill-palette-color="primary" id="text-0"></path></svg></g></svg></g></svg></g></svg></g><g transform="matrix(1,0,0,1,127.1637207390535,0)"><svg viewBox="0 0 141.19255852189298 142.07503623083005" height="142.07503623083005" width="141.19255852189298"><g><svg xmlns="http://www.w3.org/2000/svg" xmlns:xlink="http://www.w3.org/1999/xlink" version="1.1" x="8.000000000000007" y="0" viewBox="3.754 0.89 42.491 48.221" enable-background="new 0 0 50 50" xml:space="preserve" height="142.07503623083005" width="125.19255852189296" class="icon-icon-0" data-fill-palette-color="accent" id="icon-0"><g fill="#412e27" data-fill-palette-color="accent"><path fill="#412e27" d="M45.099 27.003V28.333H35.341V27.003H33.373V20.751L32.589 19.386V15.492C32.589 12.872 31.275 10.343 28.113 8.973 27.574 8.739 25.861 8.293 25.861 8.293V5.259H25.104V2.874H26.086V1.653H25.104V0.89H23.822V1.654H22.843V2.875H23.822V5.26H22.748V8.295S22.177 8.826 21.964 8.975C19.018 11.057 17.3 12.961 17.385 15.593 17.281 16.727 17.244 17.291 17.267 17.282 17.296 17.273 17.31 17.974 17.31 19.386L16.523 20.751V27.003H13.411V21.82H15.057V20.751H13.411V16.097L10.017 6.896 5.898 16.097V20.751H3.754V21.82H5.899V27.003H3.754V49.111H46.245V27.003zM19.663 46.966H12.809V35.507H19.663z" data-fill-palette-color="accent"></path></g></svg></g></svg></g><g><rect width="111.03679673848663" height="9.270964825422316" y="131.80407140540774" x="268.3562792609465" fill="#412e27" data-fill-palette-color="accent"></rect><rect width="111.03679673848663" height="9.270964825422316" y="131.80407140540774" x="16.126924000566873" fill="#412e27" data-fill-palette-color="accent"></rect><rect width="111.03679673848663" height="9.270964825422316" y="113.2621417545631" x="268.3562792609465" fill="#412e27" data-fill-palette-color="accent"></rect><rect width="111.03679673848663" height="9.270964825422316" y="113.2621417545631" x="16.126924000566873" fill="#412e27" data-fill-palette-color="accent"></rect></g></svg></g><defs></defs></svg><rect width="363.26615199886623" height="247.2" fill="none" stroke="none" visibility="hidden"></rect></g></svg></g></svg>