<?xml version="1.0" encoding="UTF-8" standalone="no"?> <svg id="Layer_1" data-name="Layer 1" xmlns="http://www.w3.org/2000/svg" viewBox="0 0 512 512"><title>Mosque</title><path d="M394.667,405.333h-6.329a112.563,112.563,0,0,0,13.244-10.552c23.054-21.419,35.751-51.764,35.751-85.448,0-64.249-45.4-118.83-105.605-126.961a87.7,87.7,0,0,1-39.42-15.059c-12.1-8.568-25.641-31.763-25.641-49.98a10.667,10.667,0,0,0-21.334,0c0,18.217-13.538,41.412-25.641,49.98a87.7,87.7,0,0,1-39.421,15.059c-60.2,8.131-105.6,62.713-105.6,126.961,0,33.684,12.7,64.029,35.75,85.448a112.577,112.577,0,0,0,13.271,10.552h-6.355a42.667,42.667,0,0,0,0,85.334H394.667a42.667,42.667,0,0,0,0-85.334ZM96,309.333c0-53.618,37.457-99.111,87.128-105.819,18.326-2.476,34.775-8.8,48.891-18.788,8.5-6.022,17.354-16.556,23.981-28.949,6.627,12.393,15.477,22.927,23.982,28.948,14.113,9.992,30.562,16.313,48.89,18.789C378.543,210.222,416,255.715,416,309.333c0,55.626-41.958,96-99.765,96H195.764C137.957,405.333,96,364.959,96,309.333Zm298.667,160H117.333a21.333,21.333,0,1,1,0-42.666H394.667a21.333,21.333,0,0,1,0,42.666Z"/><path d="M298.667,64a10.667,10.667,0,1,0-21.334,0A21.333,21.333,0,1,1,256,42.667a10.667,10.667,0,0,0,0-21.334A42.667,42.667,0,1,0,298.667,64Z"/></svg>